<svg xmlns="http://www.w3.org/2000/svg" width="20" height="20" viewBox="0 0 20 20">
  <g id="card_travel-24px" opacity="0.9">
    <path id="Path_2662" data-name="Path 2662" d="M0,0H20V20H0Z" fill="none"/>
    <path id="Path_2663" data-name="Path 2663" d="M17.6,5.509H15V3.754A1.738,1.738,0,0,0,13.267,2h-5.2A1.738,1.738,0,0,0,6.333,3.754V5.509h-2.6A1.738,1.738,0,0,0,2,7.263v9.649a1.738,1.738,0,0,0,1.733,1.754H17.6a1.738,1.738,0,0,0,1.733-1.754V7.263A1.738,1.738,0,0,0,17.6,5.509ZM8.067,3.754h5.2V5.509h-5.2ZM17.6,16.912H3.733V15.158H17.6Zm0-4.386H3.733V7.263h2.6V9.018H8.067V7.263h5.2V9.018H15V7.263h2.6Z" transform="translate(-0.667 -0.667)" fill="#002c1d"/>
  </g>
</svg>
